<?xml version="1.0"?>
<svg version="1.1" xmlns="http://www.w3.org/2000/svg" width="130px" height="100px" style=""><path fill="#756b75" d="M51.19140625,42.83203125q0-1.3671875,0.46875-1.8359375t1.30859375-0.46875q0.234375,0,0.498046875,0.0390625t0.498046875,0.1171875q1.30859375-0.25390625,2.48046875-0.25390625q1.89453125,0,3.4375,0.6640625q2.48046875,1.0546875,4.1015625,3.125t2.3828125,4.86328125t0.76171875,5.72265625q0,1.640625-0.224609375,3.41796875t-0.869140625,3.30078125q-0.56640625,1.3671875-1.5625,2.861328125t-2.255859375,2.83203125t-2.71484375,2.34375t-2.939453125,1.357421875l0,0.15625q0,0.390625-0.205078125,0.634765625t-0.498046875,0.37109375t-0.673828125,0.166015625t-0.712890625,0.0390625q-0.1953125,0-0.556640625-0.0390625t-0.703125-0.146484375t-0.576171875-0.283203125t-0.234375-0.48828125q0-3.5546875-0.185546875-7.119140625t-0.419921875-7.12890625t-0.419921875-7.119140625t-0.185546875-7.12890625z M54.8828125,41.8359375q0.1953125,1.875,0.25390625,3.740234375t0.17578125,3.740234375q0.3125,4.84375,0.72265625,9.638671875t0.48828125,9.638671875q1.875-1.23046875,3.212890625-2.8125t2.197265625-3.4375t1.259765625-3.896484375t0.400390625-4.208984375q0-1.5625-0.2734375-3.4375t-0.9375-3.61328125t-1.787109375-3.14453125t-2.802734375-2.01171875q-0.3515625-0.1171875-0.849609375-0.1953125t-1.591796875-0.078125q-0.1171875,0-0.234375,0.0390625t-0.234375,0.0390625z M71.1068359375,62.24609375q0-1.796875,0.419921875-3.525390625t0.712890625-3.447265625q0.078125-0.44921875,0.615234375-0.556640625t0.908203125-0.107421875q0.64453125,0,1.03515625,0.1953125q0.15625,0.078125,0.29296875,0.17578125t0.13671875,0.25390625q0,1.6796875-0.400390625,3.28125t-0.400390625,3.3984375q0,0.60546875,0.087890625,1.142578125t0.166015625,1.064453125l0.1171875,0.56640625q0,0.15625,0.01953125,0.2734375t0.05859375,0.2734375q0,0.3515625-0.498046875,0.478515625t-0.869140625,0.126953125q-0.56640625,0-1.044921875-0.224609375t-0.751953125-0.771484375l-0.2734375-0.56640625q-0.234375-0.44921875-0.234375-1.005859375t-0.09765625-1.025390625z M72.3568359375,50.48828125l0-0.37109375q0-0.91796875,0.458984375-1.640625t1.376953125-0.72265625q0.1171875,0,0.224609375,0.01953125t0.224609375,0.01953125q0.234375,0.0390625,0.615234375,0.185546875t0.380859375,0.458984375l0,0.0390625q-0.078125,0.15625-0.09765625,0.322265625t-0.09765625,0.283203125l0.0390625-0.0390625q-0.234375,0.60546875-0.380859375,0.9765625t-0.322265625,0.595703125t-0.439453125,0.322265625t-0.751953125,0.09765625q-0.078125,0-0.2734375-0.01953125t-0.419921875-0.078125t-0.380859375-0.15625t-0.15625-0.29296875z M78.834765625,55.44921875q0-0.15625,0.185546875-0.283203125t0.419921875-0.185546875t0.478515625-0.078125t0.361328125-0.01953125q0.87890625,0,1.50390625,0.78125t1.083984375,2.001953125t0.78125,2.6953125t0.615234375,2.939453125t0.576171875,2.685546875t0.634765625,1.884765625q0.60546875-1.19140625,1.103515625-2.87109375t0.91796875-3.4765625t0.7421875-3.544921875t0.517578125-3.056640625q0.078125-0.3515625,0.48828125-0.439453125t0.68359375-0.087890625q0.44921875,0,0.78125,0.126953125t0.33203125,0.556640625q0,0.72265625-0.17578125,1.962890625t-0.478515625,2.783203125t-0.703125,3.1640625t-0.859375,3.076171875t-0.95703125,2.578125t-0.986328125,1.591796875q-0.234375,0.2734375-0.732421875,0.380859375t-0.830078125,0.107421875q-1.15234375,0-1.9140625-0.60546875l0,0.0390625q-1.19140625-1.11328125-1.7578125-2.71484375t-0.8203125-3.33984375t-0.458984375-3.45703125t-0.693359375-3.125q-0.078125-0.15625-0.1953125-0.458984375t-0.2734375-0.60546875t-0.263671875-0.576171875t-0.107421875-0.4296875z M94.2384765625,62.24609375q0-1.796875,0.419921875-3.525390625t0.712890625-3.447265625q0.078125-0.44921875,0.615234375-0.556640625t0.908203125-0.107421875q0.64453125,0,1.03515625,0.1953125q0.15625,0.078125,0.29296875,0.17578125t0.13671875,0.25390625q0,1.6796875-0.400390625,3.28125t-0.400390625,3.3984375q0,0.60546875,0.087890625,1.142578125t0.166015625,1.064453125l0.1171875,0.56640625q0,0.15625,0.01953125,0.2734375t0.05859375,0.2734375q0,0.3515625-0.498046875,0.478515625t-0.869140625,0.126953125q-0.56640625,0-1.044921875-0.224609375t-0.751953125-0.771484375l-0.2734375-0.56640625q-0.234375-0.44921875-0.234375-1.005859375t-0.09765625-1.025390625z M95.4884765625,50.48828125l0-0.37109375q0-0.91796875,0.458984375-1.640625t1.376953125-0.72265625q0.1171875,0,0.224609375,0.01953125t0.224609375,0.01953125q0.234375,0.0390625,0.615234375,0.185546875t0.380859375,0.458984375l0,0.0390625q-0.078125,0.15625-0.09765625,0.322265625t-0.09765625,0.283203125l0.0390625-0.0390625q-0.234375,0.60546875-0.380859375,0.9765625t-0.322265625,0.595703125t-0.439453125,0.322265625t-0.751953125,0.09765625q-0.078125,0-0.2734375-0.01953125t-0.419921875-0.078125t-0.380859375-0.15625t-0.15625-0.29296875z"/><path fill="#" d=""/></svg>
